<svg width="27" height="26" viewBox="0 0 27 26" fill="none" xmlns="http://www.w3.org/2000/svg">
<path opacity="0.5" d="M27 1.10728V17.9261C27 18.5376 26.4852 19.0334 25.8501 19.0334C25.2151 19.0334 24.7003 18.5376 24.7003 17.9261V3.78071L1.96304 25.6757C1.73844 25.8919 1.44424 26 1.14993 26C0.855615 26 0.56141 25.8919 0.336814 25.6757C-0.112271 25.2433 -0.112271 24.5421 0.336814 24.1097L23.0741 2.21457H8.3844C7.74937 2.21457 7.23452 1.71879 7.23452 1.10728C7.23452 0.495776 7.74937 3.90029e-09 8.3844 3.90029e-09H25.8501C26.4852 -5.07773e-05 27 0.495776 27 1.10728Z" fill="#7C8387"/>
</svg>
