<svg width="14" height="15" viewBox="0 0 14 15" fill="none" xmlns="http://www.w3.org/2000/svg">
<path d="M1.6219 14.0147L1.62194 14.0146L12.1427 3.4939V9.96305C12.1427 10.4069 12.5025 10.7667 12.9464 10.7667C13.3902 10.7667 13.75 10.4069 13.75 9.96305V1.55364C13.75 1.10984 13.3902 0.749974 12.9464 0.75C12.9464 0.75 12.9463 0.75 12.9463 0.75H4.53693C4.09311 0.75 3.73329 1.10982 3.73329 1.55364C3.73329 1.99747 4.09311 2.35728 4.53693 2.35728H11.0062L0.485393 12.8781C0.171536 13.1919 0.171536 13.7008 0.485393 14.0146L0.485435 14.0147C0.642308 14.1715 0.848348 14.25 1.05367 14.25C1.25899 14.25 1.46503 14.1715 1.6219 14.0147Z" fill="white" stroke="white" stroke-width="0.5"/>
</svg>
