<svg width="64" height="64" viewBox="0 0 64 64" fill="none" xmlns="http://www.w3.org/2000/svg">
<path d="M57.6671 28.9166C54.1751 28.9166 51.3342 31.7578 51.3342 35.25C51.3342 38.0897 53.2127 40.4987 55.7922 41.2999V56.1132C55.7922 58.3943 53.9365 60.25 51.6556 60.25C49.3747 60.25 47.519 58.3943 47.519 56.1132V49.8839C47.519 45.535 43.9811 41.997 39.6325 41.997C35.2839 41.997 31.7461 45.535 31.7461 49.8839V56.1132C31.7461 58.3943 29.8905 60.25 27.6095 60.25C25.3285 60.25 23.4729 58.3943 23.4729 56.1132V42.9286C29.5704 42.2134 34.7759 38.0492 36.7551 32.1162L42.7862 14.0362C43.5904 11.6256 43.1995 9.06042 41.714 6.99867C40.2284 4.93692 37.9191 3.7546 35.378 3.7546H30.8812V0H27.1315V11.2591H30.8812V7.50458H35.3779C36.6987 7.50458 37.8995 8.11924 38.6716 9.19106C39.444 10.2627 39.6472 11.5963 39.2291 12.8494L33.198 30.9294C31.5302 35.9294 26.8685 39.2886 21.5981 39.2886C16.3277 39.2886 11.666 35.9293 9.99811 30.9294L3.96686 12.8495C3.54886 11.5963 3.75198 10.2629 4.52423 9.19106C5.29661 8.11924 6.49711 7.50458 7.81811 7.50458H12.3151V11.2591H16.0649V0H12.3151V3.75448H7.81811C5.27698 3.75448 2.96748 4.93692 1.48198 6.99867C-0.00351703 9.06042 -0.394392 11.6255 0.409733 14.0362L6.44086 32.1162C8.41998 38.0492 13.6256 42.2136 19.7231 42.9286V56.1132C19.7231 60.462 23.2609 64 27.6095 64C31.9581 64 35.4959 60.462 35.4959 56.1132V49.8839C35.4959 47.6028 37.3516 45.747 39.6325 45.747C41.9135 45.747 43.7692 47.6028 43.7692 49.8839V56.1132C43.7692 60.462 47.307 64 51.6556 64C56.0042 64 59.542 60.462 59.542 56.1132V41.2999C62.1214 40.4987 64 38.0898 64 35.25C64.0001 31.7577 61.1591 28.9166 57.6671 28.9166Z" fill="#236AF5"/>
</svg>
