<svg width="64" height="64" viewBox="0 0 64 64" fill="none" xmlns="http://www.w3.org/2000/svg">
<g clip-path="url(#clip0_66_821)">
<path d="M54.217 4.8C56.8315 4.8 58.942 6.944 58.942 9.6V54.4C58.942 57.056 56.8315 59.2 54.217 59.2H10.117C7.50249 59.2 5.39199 57.056 5.39199 54.4V9.6C5.39199 6.944 7.50249 4.8 10.117 4.8H54.217ZM54.217 0H10.117C4.88799 0 0.666992 4.288 0.666992 9.6V54.4C0.666992 59.712 4.88799 64 10.117 64H54.217C59.446 64 63.667 59.712 63.667 54.4V9.6C63.667 4.288 59.446 0 54.217 0Z" fill="#236AF5"/>
<path d="M32.167 50C30.8003 50 29.667 48.9314 29.667 47.6429V19.3571C29.667 18.0686 30.8003 17 32.167 17C33.5337 17 34.667 18.0686 34.667 19.3571V47.6429C34.667 48.9314 33.5337 50 32.167 50Z" fill="#236AF5"/>
<path d="M19.167 50C17.8003 50 16.667 48.9491 16.667 47.6818V35.3182C16.667 34.0509 17.8003 33 19.167 33C20.5337 33 21.667 34.0509 21.667 35.3182V47.6818C21.667 48.9491 20.5337 50 19.167 50Z" fill="#236AF5"/>
<path d="M44.667 50C43.5737 50 42.667 48.912 42.667 47.6V28.4C42.667 27.088 43.5737 26 44.667 26C45.7603 26 46.667 27.088 46.667 28.4V47.6C46.667 48.912 45.7603 50 44.667 50Z" fill="#236AF5"/>
</g>
<defs>
<clipPath id="clip0_66_821">
<rect width="64" height="64" fill="white"/>
</clipPath>
</defs>
</svg>
