<svg width="48" height="66" viewBox="0 0 48 66" fill="none" xmlns="http://www.w3.org/2000/svg">
<path d="M30.1585 7.27652C28.6189 5.03516 27.2604 2.97312 25.9925 1.09038C25.8113 0.821418 25.5396 0.552456 25.2679 0.373147C24.1811 -0.344086 22.7321 0.0145304 22.0076 1.09038C20.8302 2.97312 19.4717 4.94551 17.8415 7.27652C10.6868 17.6764 0 33.3659 0 42.3313C0 48.8761 2.71698 54.7932 7.06415 59.0966C11.4113 63.3104 17.3887 66 24 66C30.6113 66 36.5887 63.3104 40.9359 59.007C45.283 54.7036 48 48.7864 48 42.2416C48 33.2762 37.3132 17.6764 30.1585 7.27652ZM37.6755 55.7794C34.1434 59.2759 29.3434 61.338 24 61.338C18.6566 61.338 13.8566 59.1863 10.3245 55.7794C6.79245 52.2829 4.70943 47.5312 4.70943 42.2416C4.70943 34.7107 14.9434 19.7384 21.7358 9.78684C22.5509 8.62133 23.2755 7.45583 24 6.46963C24.7245 7.45583 25.4491 8.62133 26.2642 9.78684C33.0566 19.8281 43.2906 34.7107 43.2906 42.2416C43.2906 47.5312 41.117 52.2829 37.6755 55.7794Z" fill="#236AF5"/>
<path d="M38.0377 40.6279C36.7698 40.5382 35.683 41.5244 35.5925 42.7796C35.5019 44.752 34.8679 46.6347 33.8717 48.2485C32.8755 49.8623 31.4264 51.2967 29.7057 52.1933C28.6189 52.8208 28.166 54.2553 28.8 55.3312C29.5245 56.5863 30.9736 56.9449 32.0604 56.3174C34.5057 54.9725 36.4981 53.0001 37.8566 50.7588C39.3057 48.5174 40.1208 45.8278 40.2113 43.0485C40.3019 41.7934 39.3057 40.7175 38.0377 40.6279Z" fill="#236AF5"/>
</svg>
